<mxfile host="app.diagrams.net" modified="2023-12-12T02:49:25.080Z" agent="Mozilla/5.0 (X11; Linux x86_64) AppleWebKit/537.36 (KHTML, like Gecko) Chrome/120.0.0.0 Safari/537.36" etag="ZYOCKbtpDqcwmpL4U6UU" version="22.1.7" type="github" pages="3">
  <diagram name="DB" id="sPHFyif_Ie5HZKA9Fv2O">
    <mxGraphModel dx="2071" dy="729" grid="1" gridSize="10" guides="1" tooltips="1" connect="1" arrows="1" fold="1" page="1" pageScale="1" pageWidth="850" pageHeight="1100" math="0" shadow="0">
      <root>
        <mxCell id="0" />
        <mxCell id="1" parent="0" />
        <mxCell id="hqyqY9_k0z_B1ryHWIEj-14" value="user" style="shape=table;startSize=30;container=1;collapsible=1;childLayout=tableLayout;fixedRows=1;rowLines=0;fontStyle=1;align=center;resizeLast=1;html=1;" parent="1" vertex="1">
          <mxGeometry x="220" y="690" width="180" height="160" as="geometry" />
        </mxCell>
        <mxCell id="hqyqY9_k0z_B1ryHWIEj-15" value="" style="shape=tableRow;horizontal=0;startSize=0;swimlaneHead=0;swimlaneBody=0;fillColor=none;collapsible=0;dropTarget=0;points=[[0,0.5],[1,0.5]];portConstraint=eastwest;top=0;left=0;right=0;bottom=1;" parent="hqyqY9_k0z_B1ryHWIEj-14" vertex="1">
          <mxGeometry y="30" width="180" height="30" as="geometry" />
        </mxCell>
        <mxCell id="hqyqY9_k0z_B1ryHWIEj-16" value="PK" style="shape=partialRectangle;connectable=0;fillColor=none;top=0;left=0;bottom=0;right=0;fontStyle=1;overflow=hidden;whiteSpace=wrap;html=1;" parent="hqyqY9_k0z_B1ryHWIEj-15" vertex="1">
          <mxGeometry width="30" height="30" as="geometry">
            <mxRectangle width="30" height="30" as="alternateBounds" />
          </mxGeometry>
        </mxCell>
        <mxCell id="hqyqY9_k0z_B1ryHWIEj-17" value="id" style="shape=partialRectangle;connectable=0;fillColor=none;top=0;left=0;bottom=0;right=0;align=left;spacingLeft=6;fontStyle=5;overflow=hidden;whiteSpace=wrap;html=1;" parent="hqyqY9_k0z_B1ryHWIEj-15" vertex="1">
          <mxGeometry x="30" width="150" height="30" as="geometry">
            <mxRectangle width="150" height="30" as="alternateBounds" />
          </mxGeometry>
        </mxCell>
        <mxCell id="hqyqY9_k0z_B1ryHWIEj-18" value="" style="shape=tableRow;horizontal=0;startSize=0;swimlaneHead=0;swimlaneBody=0;fillColor=none;collapsible=0;dropTarget=0;points=[[0,0.5],[1,0.5]];portConstraint=eastwest;top=0;left=0;right=0;bottom=0;" parent="hqyqY9_k0z_B1ryHWIEj-14" vertex="1">
          <mxGeometry y="60" width="180" height="30" as="geometry" />
        </mxCell>
        <mxCell id="hqyqY9_k0z_B1ryHWIEj-19" value="" style="shape=partialRectangle;connectable=0;fillColor=none;top=0;left=0;bottom=0;right=0;editable=1;overflow=hidden;whiteSpace=wrap;html=1;" parent="hqyqY9_k0z_B1ryHWIEj-18" vertex="1">
          <mxGeometry width="30" height="30" as="geometry">
            <mxRectangle width="30" height="30" as="alternateBounds" />
          </mxGeometry>
        </mxCell>
        <mxCell id="hqyqY9_k0z_B1ryHWIEj-20" value="name" style="shape=partialRectangle;connectable=0;fillColor=none;top=0;left=0;bottom=0;right=0;align=left;spacingLeft=6;overflow=hidden;whiteSpace=wrap;html=1;" parent="hqyqY9_k0z_B1ryHWIEj-18" vertex="1">
          <mxGeometry x="30" width="150" height="30" as="geometry">
            <mxRectangle width="150" height="30" as="alternateBounds" />
          </mxGeometry>
        </mxCell>
        <mxCell id="hqyqY9_k0z_B1ryHWIEj-21" value="" style="shape=tableRow;horizontal=0;startSize=0;swimlaneHead=0;swimlaneBody=0;fillColor=none;collapsible=0;dropTarget=0;points=[[0,0.5],[1,0.5]];portConstraint=eastwest;top=0;left=0;right=0;bottom=0;" parent="hqyqY9_k0z_B1ryHWIEj-14" vertex="1">
          <mxGeometry y="90" width="180" height="30" as="geometry" />
        </mxCell>
        <mxCell id="hqyqY9_k0z_B1ryHWIEj-22" value="" style="shape=partialRectangle;connectable=0;fillColor=none;top=0;left=0;bottom=0;right=0;editable=1;overflow=hidden;whiteSpace=wrap;html=1;" parent="hqyqY9_k0z_B1ryHWIEj-21" vertex="1">
          <mxGeometry width="30" height="30" as="geometry">
            <mxRectangle width="30" height="30" as="alternateBounds" />
          </mxGeometry>
        </mxCell>
        <mxCell id="hqyqY9_k0z_B1ryHWIEj-23" value="description" style="shape=partialRectangle;connectable=0;fillColor=none;top=0;left=0;bottom=0;right=0;align=left;spacingLeft=6;overflow=hidden;whiteSpace=wrap;html=1;" parent="hqyqY9_k0z_B1ryHWIEj-21" vertex="1">
          <mxGeometry x="30" width="150" height="30" as="geometry">
            <mxRectangle width="150" height="30" as="alternateBounds" />
          </mxGeometry>
        </mxCell>
        <mxCell id="hqyqY9_k0z_B1ryHWIEj-24" value="" style="shape=tableRow;horizontal=0;startSize=0;swimlaneHead=0;swimlaneBody=0;fillColor=none;collapsible=0;dropTarget=0;points=[[0,0.5],[1,0.5]];portConstraint=eastwest;top=0;left=0;right=0;bottom=0;" parent="hqyqY9_k0z_B1ryHWIEj-14" vertex="1">
          <mxGeometry y="120" width="180" height="40" as="geometry" />
        </mxCell>
        <mxCell id="hqyqY9_k0z_B1ryHWIEj-25" value="" style="shape=partialRectangle;connectable=0;fillColor=none;top=0;left=0;bottom=0;right=0;editable=1;overflow=hidden;whiteSpace=wrap;html=1;" parent="hqyqY9_k0z_B1ryHWIEj-24" vertex="1">
          <mxGeometry width="30" height="40" as="geometry">
            <mxRectangle width="30" height="40" as="alternateBounds" />
          </mxGeometry>
        </mxCell>
        <mxCell id="hqyqY9_k0z_B1ryHWIEj-26" value="group" style="shape=partialRectangle;connectable=0;fillColor=none;top=0;left=0;bottom=0;right=0;align=left;spacingLeft=6;overflow=hidden;whiteSpace=wrap;html=1;" parent="hqyqY9_k0z_B1ryHWIEj-24" vertex="1">
          <mxGeometry x="30" width="150" height="40" as="geometry">
            <mxRectangle width="150" height="40" as="alternateBounds" />
          </mxGeometry>
        </mxCell>
        <mxCell id="a7Jfe8xoFMWcddATiSIu-2" value="job" style="shape=table;startSize=30;container=1;collapsible=1;childLayout=tableLayout;fixedRows=1;rowLines=0;fontStyle=1;align=center;resizeLast=1;html=1;" parent="1" vertex="1">
          <mxGeometry x="-400" y="510" width="180" height="180" as="geometry">
            <mxRectangle x="-400" y="480" width="60" height="30" as="alternateBounds" />
          </mxGeometry>
        </mxCell>
        <mxCell id="a7Jfe8xoFMWcddATiSIu-3" value="" style="shape=tableRow;horizontal=0;startSize=0;swimlaneHead=0;swimlaneBody=0;fillColor=none;collapsible=0;dropTarget=0;points=[[0,0.5],[1,0.5]];portConstraint=eastwest;top=0;left=0;right=0;bottom=1;" parent="a7Jfe8xoFMWcddATiSIu-2" vertex="1">
          <mxGeometry y="30" width="180" height="30" as="geometry" />
        </mxCell>
        <mxCell id="a7Jfe8xoFMWcddATiSIu-4" value="PK" style="shape=partialRectangle;connectable=0;fillColor=none;top=0;left=0;bottom=0;right=0;fontStyle=1;overflow=hidden;whiteSpace=wrap;html=1;" parent="a7Jfe8xoFMWcddATiSIu-3" vertex="1">
          <mxGeometry width="30" height="30" as="geometry">
            <mxRectangle width="30" height="30" as="alternateBounds" />
          </mxGeometry>
        </mxCell>
        <mxCell id="a7Jfe8xoFMWcddATiSIu-5" value="id" style="shape=partialRectangle;connectable=0;fillColor=none;top=0;left=0;bottom=0;right=0;align=left;spacingLeft=6;fontStyle=5;overflow=hidden;whiteSpace=wrap;html=1;" parent="a7Jfe8xoFMWcddATiSIu-3" vertex="1">
          <mxGeometry x="30" width="150" height="30" as="geometry">
            <mxRectangle width="150" height="30" as="alternateBounds" />
          </mxGeometry>
        </mxCell>
        <mxCell id="a7Jfe8xoFMWcddATiSIu-6" value="" style="shape=tableRow;horizontal=0;startSize=0;swimlaneHead=0;swimlaneBody=0;fillColor=none;collapsible=0;dropTarget=0;points=[[0,0.5],[1,0.5]];portConstraint=eastwest;top=0;left=0;right=0;bottom=0;" parent="a7Jfe8xoFMWcddATiSIu-2" vertex="1">
          <mxGeometry y="60" width="180" height="40" as="geometry" />
        </mxCell>
        <mxCell id="a7Jfe8xoFMWcddATiSIu-7" value="" style="shape=partialRectangle;connectable=0;fillColor=none;top=0;left=0;bottom=0;right=0;editable=1;overflow=hidden;whiteSpace=wrap;html=1;" parent="a7Jfe8xoFMWcddATiSIu-6" vertex="1">
          <mxGeometry width="30" height="40" as="geometry">
            <mxRectangle width="30" height="40" as="alternateBounds" />
          </mxGeometry>
        </mxCell>
        <mxCell id="a7Jfe8xoFMWcddATiSIu-8" value="description" style="shape=partialRectangle;connectable=0;fillColor=none;top=0;left=0;bottom=0;right=0;align=left;spacingLeft=6;overflow=hidden;whiteSpace=wrap;html=1;" parent="a7Jfe8xoFMWcddATiSIu-6" vertex="1">
          <mxGeometry x="30" width="150" height="40" as="geometry">
            <mxRectangle width="150" height="40" as="alternateBounds" />
          </mxGeometry>
        </mxCell>
        <mxCell id="a7Jfe8xoFMWcddATiSIu-9" value="" style="shape=tableRow;horizontal=0;startSize=0;swimlaneHead=0;swimlaneBody=0;fillColor=none;collapsible=0;dropTarget=0;points=[[0,0.5],[1,0.5]];portConstraint=eastwest;top=0;left=0;right=0;bottom=0;" parent="a7Jfe8xoFMWcddATiSIu-2" vertex="1">
          <mxGeometry y="100" width="180" height="30" as="geometry" />
        </mxCell>
        <mxCell id="a7Jfe8xoFMWcddATiSIu-10" value="" style="shape=partialRectangle;connectable=0;fillColor=none;top=0;left=0;bottom=0;right=0;editable=1;overflow=hidden;whiteSpace=wrap;html=1;" parent="a7Jfe8xoFMWcddATiSIu-9" vertex="1">
          <mxGeometry width="30" height="30" as="geometry">
            <mxRectangle width="30" height="30" as="alternateBounds" />
          </mxGeometry>
        </mxCell>
        <mxCell id="a7Jfe8xoFMWcddATiSIu-11" value="job_listing" style="shape=partialRectangle;connectable=0;fillColor=none;top=0;left=0;bottom=0;right=0;align=left;spacingLeft=6;overflow=hidden;whiteSpace=wrap;html=1;" parent="a7Jfe8xoFMWcddATiSIu-9" vertex="1">
          <mxGeometry x="30" width="150" height="30" as="geometry">
            <mxRectangle width="150" height="30" as="alternateBounds" />
          </mxGeometry>
        </mxCell>
        <mxCell id="a7Jfe8xoFMWcddATiSIu-12" value="" style="shape=tableRow;horizontal=0;startSize=0;swimlaneHead=0;swimlaneBody=0;fillColor=none;collapsible=0;dropTarget=0;points=[[0,0.5],[1,0.5]];portConstraint=eastwest;top=0;left=0;right=0;bottom=0;" parent="a7Jfe8xoFMWcddATiSIu-2" vertex="1">
          <mxGeometry y="130" width="180" height="50" as="geometry" />
        </mxCell>
        <mxCell id="a7Jfe8xoFMWcddATiSIu-13" value="" style="shape=partialRectangle;connectable=0;fillColor=none;top=0;left=0;bottom=0;right=0;editable=1;overflow=hidden;whiteSpace=wrap;html=1;" parent="a7Jfe8xoFMWcddATiSIu-12" vertex="1">
          <mxGeometry width="30" height="50" as="geometry">
            <mxRectangle width="30" height="50" as="alternateBounds" />
          </mxGeometry>
        </mxCell>
        <mxCell id="a7Jfe8xoFMWcddATiSIu-14" value="(seeking)" style="shape=partialRectangle;connectable=0;fillColor=none;top=0;left=0;bottom=0;right=0;align=left;spacingLeft=6;overflow=hidden;whiteSpace=wrap;html=1;" parent="a7Jfe8xoFMWcddATiSIu-12" vertex="1">
          <mxGeometry x="30" width="150" height="50" as="geometry">
            <mxRectangle width="150" height="50" as="alternateBounds" />
          </mxGeometry>
        </mxCell>
        <mxCell id="a7Jfe8xoFMWcddATiSIu-15" value="job listing" style="shape=table;startSize=30;container=1;collapsible=1;childLayout=tableLayout;fixedRows=1;rowLines=0;fontStyle=1;align=center;resizeLast=1;html=1;" parent="1" vertex="1">
          <mxGeometry x="-80" y="430" width="180" height="150" as="geometry" />
        </mxCell>
        <mxCell id="a7Jfe8xoFMWcddATiSIu-16" value="" style="shape=tableRow;horizontal=0;startSize=0;swimlaneHead=0;swimlaneBody=0;fillColor=none;collapsible=0;dropTarget=0;points=[[0,0.5],[1,0.5]];portConstraint=eastwest;top=0;left=0;right=0;bottom=1;" parent="a7Jfe8xoFMWcddATiSIu-15" vertex="1">
          <mxGeometry y="30" width="180" height="30" as="geometry" />
        </mxCell>
        <mxCell id="a7Jfe8xoFMWcddATiSIu-17" value="PK" style="shape=partialRectangle;connectable=0;fillColor=none;top=0;left=0;bottom=0;right=0;fontStyle=1;overflow=hidden;whiteSpace=wrap;html=1;" parent="a7Jfe8xoFMWcddATiSIu-16" vertex="1">
          <mxGeometry width="30" height="30" as="geometry">
            <mxRectangle width="30" height="30" as="alternateBounds" />
          </mxGeometry>
        </mxCell>
        <mxCell id="a7Jfe8xoFMWcddATiSIu-18" value="id" style="shape=partialRectangle;connectable=0;fillColor=none;top=0;left=0;bottom=0;right=0;align=left;spacingLeft=6;fontStyle=5;overflow=hidden;whiteSpace=wrap;html=1;" parent="a7Jfe8xoFMWcddATiSIu-16" vertex="1">
          <mxGeometry x="30" width="150" height="30" as="geometry">
            <mxRectangle width="150" height="30" as="alternateBounds" />
          </mxGeometry>
        </mxCell>
        <mxCell id="a7Jfe8xoFMWcddATiSIu-19" value="" style="shape=tableRow;horizontal=0;startSize=0;swimlaneHead=0;swimlaneBody=0;fillColor=none;collapsible=0;dropTarget=0;points=[[0,0.5],[1,0.5]];portConstraint=eastwest;top=0;left=0;right=0;bottom=0;" parent="a7Jfe8xoFMWcddATiSIu-15" vertex="1">
          <mxGeometry y="60" width="180" height="30" as="geometry" />
        </mxCell>
        <mxCell id="a7Jfe8xoFMWcddATiSIu-20" value="" style="shape=partialRectangle;connectable=0;fillColor=none;top=0;left=0;bottom=0;right=0;editable=1;overflow=hidden;whiteSpace=wrap;html=1;" parent="a7Jfe8xoFMWcddATiSIu-19" vertex="1">
          <mxGeometry width="30" height="30" as="geometry">
            <mxRectangle width="30" height="30" as="alternateBounds" />
          </mxGeometry>
        </mxCell>
        <mxCell id="a7Jfe8xoFMWcddATiSIu-21" value="user" style="shape=partialRectangle;connectable=0;fillColor=none;top=0;left=0;bottom=0;right=0;align=left;spacingLeft=6;overflow=hidden;whiteSpace=wrap;html=1;" parent="a7Jfe8xoFMWcddATiSIu-19" vertex="1">
          <mxGeometry x="30" width="150" height="30" as="geometry">
            <mxRectangle width="150" height="30" as="alternateBounds" />
          </mxGeometry>
        </mxCell>
        <mxCell id="a7Jfe8xoFMWcddATiSIu-22" value="" style="shape=tableRow;horizontal=0;startSize=0;swimlaneHead=0;swimlaneBody=0;fillColor=none;collapsible=0;dropTarget=0;points=[[0,0.5],[1,0.5]];portConstraint=eastwest;top=0;left=0;right=0;bottom=0;" parent="a7Jfe8xoFMWcddATiSIu-15" vertex="1">
          <mxGeometry y="90" width="180" height="30" as="geometry" />
        </mxCell>
        <mxCell id="a7Jfe8xoFMWcddATiSIu-23" value="" style="shape=partialRectangle;connectable=0;fillColor=none;top=0;left=0;bottom=0;right=0;editable=1;overflow=hidden;whiteSpace=wrap;html=1;" parent="a7Jfe8xoFMWcddATiSIu-22" vertex="1">
          <mxGeometry width="30" height="30" as="geometry">
            <mxRectangle width="30" height="30" as="alternateBounds" />
          </mxGeometry>
        </mxCell>
        <mxCell id="a7Jfe8xoFMWcddATiSIu-24" value="closed_or_opened" style="shape=partialRectangle;connectable=0;fillColor=none;top=0;left=0;bottom=0;right=0;align=left;spacingLeft=6;overflow=hidden;whiteSpace=wrap;html=1;" parent="a7Jfe8xoFMWcddATiSIu-22" vertex="1">
          <mxGeometry x="30" width="150" height="30" as="geometry">
            <mxRectangle width="150" height="30" as="alternateBounds" />
          </mxGeometry>
        </mxCell>
        <mxCell id="a7Jfe8xoFMWcddATiSIu-25" value="" style="shape=tableRow;horizontal=0;startSize=0;swimlaneHead=0;swimlaneBody=0;fillColor=none;collapsible=0;dropTarget=0;points=[[0,0.5],[1,0.5]];portConstraint=eastwest;top=0;left=0;right=0;bottom=0;" parent="a7Jfe8xoFMWcddATiSIu-15" vertex="1">
          <mxGeometry y="120" width="180" height="30" as="geometry" />
        </mxCell>
        <mxCell id="a7Jfe8xoFMWcddATiSIu-26" value="" style="shape=partialRectangle;connectable=0;fillColor=none;top=0;left=0;bottom=0;right=0;editable=1;overflow=hidden;whiteSpace=wrap;html=1;" parent="a7Jfe8xoFMWcddATiSIu-25" vertex="1">
          <mxGeometry width="30" height="30" as="geometry">
            <mxRectangle width="30" height="30" as="alternateBounds" />
          </mxGeometry>
        </mxCell>
        <mxCell id="a7Jfe8xoFMWcddATiSIu-27" value="Row 3" style="shape=partialRectangle;connectable=0;fillColor=none;top=0;left=0;bottom=0;right=0;align=left;spacingLeft=6;overflow=hidden;whiteSpace=wrap;html=1;" parent="a7Jfe8xoFMWcddATiSIu-25" vertex="1">
          <mxGeometry x="30" width="150" height="30" as="geometry">
            <mxRectangle width="150" height="30" as="alternateBounds" />
          </mxGeometry>
        </mxCell>
        <mxCell id="a7Jfe8xoFMWcddATiSIu-28" value="job seeking" style="shape=table;startSize=30;container=1;collapsible=1;childLayout=tableLayout;fixedRows=1;rowLines=0;fontStyle=1;align=center;resizeLast=1;html=1;" parent="1" vertex="1">
          <mxGeometry x="-80" y="680" width="180" height="150" as="geometry" />
        </mxCell>
        <mxCell id="a7Jfe8xoFMWcddATiSIu-29" value="" style="shape=tableRow;horizontal=0;startSize=0;swimlaneHead=0;swimlaneBody=0;fillColor=none;collapsible=0;dropTarget=0;points=[[0,0.5],[1,0.5]];portConstraint=eastwest;top=0;left=0;right=0;bottom=1;" parent="a7Jfe8xoFMWcddATiSIu-28" vertex="1">
          <mxGeometry y="30" width="180" height="30" as="geometry" />
        </mxCell>
        <mxCell id="a7Jfe8xoFMWcddATiSIu-30" value="PK" style="shape=partialRectangle;connectable=0;fillColor=none;top=0;left=0;bottom=0;right=0;fontStyle=1;overflow=hidden;whiteSpace=wrap;html=1;" parent="a7Jfe8xoFMWcddATiSIu-29" vertex="1">
          <mxGeometry width="30" height="30" as="geometry">
            <mxRectangle width="30" height="30" as="alternateBounds" />
          </mxGeometry>
        </mxCell>
        <mxCell id="a7Jfe8xoFMWcddATiSIu-31" value="id" style="shape=partialRectangle;connectable=0;fillColor=none;top=0;left=0;bottom=0;right=0;align=left;spacingLeft=6;fontStyle=5;overflow=hidden;whiteSpace=wrap;html=1;" parent="a7Jfe8xoFMWcddATiSIu-29" vertex="1">
          <mxGeometry x="30" width="150" height="30" as="geometry">
            <mxRectangle width="150" height="30" as="alternateBounds" />
          </mxGeometry>
        </mxCell>
        <mxCell id="a7Jfe8xoFMWcddATiSIu-32" value="" style="shape=tableRow;horizontal=0;startSize=0;swimlaneHead=0;swimlaneBody=0;fillColor=none;collapsible=0;dropTarget=0;points=[[0,0.5],[1,0.5]];portConstraint=eastwest;top=0;left=0;right=0;bottom=0;" parent="a7Jfe8xoFMWcddATiSIu-28" vertex="1">
          <mxGeometry y="60" width="180" height="30" as="geometry" />
        </mxCell>
        <mxCell id="a7Jfe8xoFMWcddATiSIu-33" value="" style="shape=partialRectangle;connectable=0;fillColor=none;top=0;left=0;bottom=0;right=0;editable=1;overflow=hidden;whiteSpace=wrap;html=1;" parent="a7Jfe8xoFMWcddATiSIu-32" vertex="1">
          <mxGeometry width="30" height="30" as="geometry">
            <mxRectangle width="30" height="30" as="alternateBounds" />
          </mxGeometry>
        </mxCell>
        <mxCell id="a7Jfe8xoFMWcddATiSIu-34" value="user" style="shape=partialRectangle;connectable=0;fillColor=none;top=0;left=0;bottom=0;right=0;align=left;spacingLeft=6;overflow=hidden;whiteSpace=wrap;html=1;" parent="a7Jfe8xoFMWcddATiSIu-32" vertex="1">
          <mxGeometry x="30" width="150" height="30" as="geometry">
            <mxRectangle width="150" height="30" as="alternateBounds" />
          </mxGeometry>
        </mxCell>
        <mxCell id="a7Jfe8xoFMWcddATiSIu-35" value="" style="shape=tableRow;horizontal=0;startSize=0;swimlaneHead=0;swimlaneBody=0;fillColor=none;collapsible=0;dropTarget=0;points=[[0,0.5],[1,0.5]];portConstraint=eastwest;top=0;left=0;right=0;bottom=0;" parent="a7Jfe8xoFMWcddATiSIu-28" vertex="1">
          <mxGeometry y="90" width="180" height="30" as="geometry" />
        </mxCell>
        <mxCell id="a7Jfe8xoFMWcddATiSIu-36" value="" style="shape=partialRectangle;connectable=0;fillColor=none;top=0;left=0;bottom=0;right=0;editable=1;overflow=hidden;whiteSpace=wrap;html=1;" parent="a7Jfe8xoFMWcddATiSIu-35" vertex="1">
          <mxGeometry width="30" height="30" as="geometry">
            <mxRectangle width="30" height="30" as="alternateBounds" />
          </mxGeometry>
        </mxCell>
        <mxCell id="a7Jfe8xoFMWcddATiSIu-37" value="Row 2" style="shape=partialRectangle;connectable=0;fillColor=none;top=0;left=0;bottom=0;right=0;align=left;spacingLeft=6;overflow=hidden;whiteSpace=wrap;html=1;" parent="a7Jfe8xoFMWcddATiSIu-35" vertex="1">
          <mxGeometry x="30" width="150" height="30" as="geometry">
            <mxRectangle width="150" height="30" as="alternateBounds" />
          </mxGeometry>
        </mxCell>
        <mxCell id="a7Jfe8xoFMWcddATiSIu-38" value="" style="shape=tableRow;horizontal=0;startSize=0;swimlaneHead=0;swimlaneBody=0;fillColor=none;collapsible=0;dropTarget=0;points=[[0,0.5],[1,0.5]];portConstraint=eastwest;top=0;left=0;right=0;bottom=0;" parent="a7Jfe8xoFMWcddATiSIu-28" vertex="1">
          <mxGeometry y="120" width="180" height="30" as="geometry" />
        </mxCell>
        <mxCell id="a7Jfe8xoFMWcddATiSIu-39" value="" style="shape=partialRectangle;connectable=0;fillColor=none;top=0;left=0;bottom=0;right=0;editable=1;overflow=hidden;whiteSpace=wrap;html=1;" parent="a7Jfe8xoFMWcddATiSIu-38" vertex="1">
          <mxGeometry width="30" height="30" as="geometry">
            <mxRectangle width="30" height="30" as="alternateBounds" />
          </mxGeometry>
        </mxCell>
        <mxCell id="a7Jfe8xoFMWcddATiSIu-40" value="Row 3" style="shape=partialRectangle;connectable=0;fillColor=none;top=0;left=0;bottom=0;right=0;align=left;spacingLeft=6;overflow=hidden;whiteSpace=wrap;html=1;" parent="a7Jfe8xoFMWcddATiSIu-38" vertex="1">
          <mxGeometry x="30" width="150" height="30" as="geometry">
            <mxRectangle width="150" height="30" as="alternateBounds" />
          </mxGeometry>
        </mxCell>
        <mxCell id="a7Jfe8xoFMWcddATiSIu-41" value="" style="edgeStyle=entityRelationEdgeStyle;fontSize=12;html=1;endArrow=none;rounded=0;entryX=0;entryY=0.5;entryDx=0;entryDy=0;exitX=1;exitY=0.5;exitDx=0;exitDy=0;startArrow=ERoneToMany;startFill=0;endFill=0;" parent="1" source="a7Jfe8xoFMWcddATiSIu-19" target="hqyqY9_k0z_B1ryHWIEj-15" edge="1">
          <mxGeometry width="100" height="100" relative="1" as="geometry">
            <mxPoint x="190" y="685" as="sourcePoint" />
            <mxPoint x="318.1999999999998" y="568.8499999999999" as="targetPoint" />
            <Array as="points">
              <mxPoint x="420" y="650" />
              <mxPoint x="460" y="680" />
              <mxPoint x="440" y="690" />
              <mxPoint x="450" y="650" />
              <mxPoint x="430" y="670" />
              <mxPoint x="500" y="600" />
              <mxPoint x="470" y="650" />
              <mxPoint x="510" y="610" />
              <mxPoint x="500" y="620" />
            </Array>
          </mxGeometry>
        </mxCell>
        <mxCell id="a7Jfe8xoFMWcddATiSIu-42" value="" style="edgeStyle=entityRelationEdgeStyle;fontSize=12;html=1;endArrow=none;rounded=0;entryX=0;entryY=0.5;entryDx=0;entryDy=0;exitX=1;exitY=0.5;exitDx=0;exitDy=0;startArrow=ERoneToMany;startFill=0;endFill=0;" parent="1" source="a7Jfe8xoFMWcddATiSIu-32" target="hqyqY9_k0z_B1ryHWIEj-15" edge="1">
          <mxGeometry width="100" height="100" relative="1" as="geometry">
            <mxPoint x="198.92000000000007" y="875.71" as="sourcePoint" />
            <mxPoint x="300" y="525" as="targetPoint" />
            <Array as="points">
              <mxPoint x="410" y="640" />
              <mxPoint x="450" y="670" />
              <mxPoint x="430" y="680" />
              <mxPoint x="440" y="640" />
              <mxPoint x="420" y="660" />
              <mxPoint x="490" y="590" />
              <mxPoint x="460" y="640" />
              <mxPoint x="500" y="600" />
              <mxPoint x="490" y="610" />
            </Array>
          </mxGeometry>
        </mxCell>
        <mxCell id="hqyqY9_k0z_B1ryHWIEj-49" value="users which are authentication keys" style="text;html=1;strokeColor=none;fillColor=none;align=center;verticalAlign=middle;whiteSpace=wrap;rounded=0;" parent="1" vertex="1">
          <mxGeometry x="240" y="650" width="140" height="30" as="geometry" />
        </mxCell>
        <mxCell id="hqyqY9_k0z_B1ryHWIEj-50" value="" style="edgeStyle=entityRelationEdgeStyle;fontSize=12;html=1;endArrow=none;rounded=0;entryX=0;entryY=0.5;entryDx=0;entryDy=0;startArrow=ERoneToMany;startFill=0;endFill=0;exitX=1;exitY=0.5;exitDx=0;exitDy=0;" parent="1" source="a7Jfe8xoFMWcddATiSIu-9" target="a7Jfe8xoFMWcddATiSIu-16" edge="1">
          <mxGeometry width="100" height="100" relative="1" as="geometry">
            <mxPoint x="-180" y="590" as="sourcePoint" />
            <mxPoint x="-150" y="345" as="targetPoint" />
            <Array as="points">
              <mxPoint x="-60" y="440" />
              <mxPoint x="-20" y="470" />
              <mxPoint x="-40" y="480" />
              <mxPoint x="-30" y="440" />
              <mxPoint x="-50" y="460" />
              <mxPoint x="20" y="390" />
              <mxPoint x="-10" y="440" />
              <mxPoint x="30" y="400" />
              <mxPoint x="20" y="410" />
            </Array>
          </mxGeometry>
        </mxCell>
        <mxCell id="hqyqY9_k0z_B1ryHWIEj-51" value="" style="edgeStyle=entityRelationEdgeStyle;fontSize=12;html=1;endArrow=ERoneToMany;rounded=0;entryX=0;entryY=0.5;entryDx=0;entryDy=0;startArrow=ERoneToMany;startFill=0;endFill=0;exitX=1;exitY=0.5;exitDx=0;exitDy=0;" parent="1" source="a7Jfe8xoFMWcddATiSIu-12" target="a7Jfe8xoFMWcddATiSIu-29" edge="1">
          <mxGeometry width="100" height="100" relative="1" as="geometry">
            <mxPoint x="-150" y="650" as="sourcePoint" />
            <mxPoint x="-140" y="665" as="targetPoint" />
            <Array as="points">
              <mxPoint x="-120" y="570" />
              <mxPoint x="-80" y="600" />
              <mxPoint x="-100" y="610" />
              <mxPoint x="-90" y="570" />
              <mxPoint x="-110" y="590" />
              <mxPoint x="-40" y="520" />
              <mxPoint x="-70" y="570" />
              <mxPoint x="-30" y="530" />
              <mxPoint x="-40" y="540" />
            </Array>
          </mxGeometry>
        </mxCell>
        <mxCell id="rE9LCna2UwS_eHfDnVN_-198" value="user が提供する job list.&lt;br&gt;&lt;br&gt;job list which are provided by user" style="text;strokeColor=none;fillColor=none;align=left;verticalAlign=middle;spacingLeft=4;spacingRight=4;overflow=hidden;points=[[0,0.5],[1,0.5]];portConstraint=eastwest;rotatable=0;whiteSpace=wrap;html=1;" parent="1" vertex="1">
          <mxGeometry x="-80" y="360" width="210" height="60" as="geometry" />
        </mxCell>
        <mxCell id="rE9LCna2UwS_eHfDnVN_-199" value="user が探している job list&lt;br&gt;&lt;br&gt;job list which the user is seeking" style="text;strokeColor=none;fillColor=none;align=left;verticalAlign=middle;spacingLeft=4;spacingRight=4;overflow=hidden;points=[[0,0.5],[1,0.5]];portConstraint=eastwest;rotatable=0;whiteSpace=wrap;html=1;" parent="1" vertex="1">
          <mxGeometry x="-80" y="620" width="200" height="50" as="geometry" />
        </mxCell>
        <mxCell id="rE9LCna2UwS_eHfDnVN_-203" value="Job はいつ生じるのか。&lt;br&gt;Job は仕事を要求する人だけから生じる既知のJobだけではなく、Jobを提供したい人が可能なJobを宣言した時その時点でも生じる既知でないものも在るのではないか。" style="text;strokeColor=none;fillColor=none;align=left;verticalAlign=middle;spacingLeft=4;spacingRight=4;overflow=hidden;points=[[0,0.5],[1,0.5]];portConstraint=eastwest;rotatable=0;whiteSpace=wrap;html=1;" parent="1" vertex="1">
          <mxGeometry x="-460" y="380" width="280" height="130" as="geometry" />
        </mxCell>
        <mxCell id="hqyqY9_k0z_B1ryHWIEj-82" value="chat" style="shape=table;startSize=30;container=1;collapsible=1;childLayout=tableLayout;fixedRows=1;rowLines=0;fontStyle=1;align=center;resizeLast=1;html=1;" parent="1" vertex="1">
          <mxGeometry x="440" y="440" width="180" height="150" as="geometry" />
        </mxCell>
        <mxCell id="hqyqY9_k0z_B1ryHWIEj-83" value="" style="shape=tableRow;horizontal=0;startSize=0;swimlaneHead=0;swimlaneBody=0;fillColor=none;collapsible=0;dropTarget=0;points=[[0,0.5],[1,0.5]];portConstraint=eastwest;top=0;left=0;right=0;bottom=1;" parent="hqyqY9_k0z_B1ryHWIEj-82" vertex="1">
          <mxGeometry y="30" width="180" height="30" as="geometry" />
        </mxCell>
        <mxCell id="hqyqY9_k0z_B1ryHWIEj-84" value="PK" style="shape=partialRectangle;connectable=0;fillColor=none;top=0;left=0;bottom=0;right=0;fontStyle=1;overflow=hidden;whiteSpace=wrap;html=1;" parent="hqyqY9_k0z_B1ryHWIEj-83" vertex="1">
          <mxGeometry width="30" height="30" as="geometry">
            <mxRectangle width="30" height="30" as="alternateBounds" />
          </mxGeometry>
        </mxCell>
        <mxCell id="hqyqY9_k0z_B1ryHWIEj-85" value="id" style="shape=partialRectangle;connectable=0;fillColor=none;top=0;left=0;bottom=0;right=0;align=left;spacingLeft=6;fontStyle=5;overflow=hidden;whiteSpace=wrap;html=1;" parent="hqyqY9_k0z_B1ryHWIEj-83" vertex="1">
          <mxGeometry x="30" width="150" height="30" as="geometry">
            <mxRectangle width="150" height="30" as="alternateBounds" />
          </mxGeometry>
        </mxCell>
        <mxCell id="hqyqY9_k0z_B1ryHWIEj-86" value="" style="shape=tableRow;horizontal=0;startSize=0;swimlaneHead=0;swimlaneBody=0;fillColor=none;collapsible=0;dropTarget=0;points=[[0,0.5],[1,0.5]];portConstraint=eastwest;top=0;left=0;right=0;bottom=0;" parent="hqyqY9_k0z_B1ryHWIEj-82" vertex="1">
          <mxGeometry y="60" width="180" height="30" as="geometry" />
        </mxCell>
        <mxCell id="hqyqY9_k0z_B1ryHWIEj-87" value="" style="shape=partialRectangle;connectable=0;fillColor=none;top=0;left=0;bottom=0;right=0;editable=1;overflow=hidden;whiteSpace=wrap;html=1;" parent="hqyqY9_k0z_B1ryHWIEj-86" vertex="1">
          <mxGeometry width="30" height="30" as="geometry">
            <mxRectangle width="30" height="30" as="alternateBounds" />
          </mxGeometry>
        </mxCell>
        <mxCell id="hqyqY9_k0z_B1ryHWIEj-88" value="created" style="shape=partialRectangle;connectable=0;fillColor=none;top=0;left=0;bottom=0;right=0;align=left;spacingLeft=6;overflow=hidden;whiteSpace=wrap;html=1;" parent="hqyqY9_k0z_B1ryHWIEj-86" vertex="1">
          <mxGeometry x="30" width="150" height="30" as="geometry">
            <mxRectangle width="150" height="30" as="alternateBounds" />
          </mxGeometry>
        </mxCell>
        <mxCell id="hqyqY9_k0z_B1ryHWIEj-89" value="" style="shape=tableRow;horizontal=0;startSize=0;swimlaneHead=0;swimlaneBody=0;fillColor=none;collapsible=0;dropTarget=0;points=[[0,0.5],[1,0.5]];portConstraint=eastwest;top=0;left=0;right=0;bottom=0;" parent="hqyqY9_k0z_B1ryHWIEj-82" vertex="1">
          <mxGeometry y="90" width="180" height="30" as="geometry" />
        </mxCell>
        <mxCell id="hqyqY9_k0z_B1ryHWIEj-90" value="" style="shape=partialRectangle;connectable=0;fillColor=none;top=0;left=0;bottom=0;right=0;editable=1;overflow=hidden;whiteSpace=wrap;html=1;" parent="hqyqY9_k0z_B1ryHWIEj-89" vertex="1">
          <mxGeometry width="30" height="30" as="geometry">
            <mxRectangle width="30" height="30" as="alternateBounds" />
          </mxGeometry>
        </mxCell>
        <mxCell id="hqyqY9_k0z_B1ryHWIEj-91" value="title" style="shape=partialRectangle;connectable=0;fillColor=none;top=0;left=0;bottom=0;right=0;align=left;spacingLeft=6;overflow=hidden;whiteSpace=wrap;html=1;" parent="hqyqY9_k0z_B1ryHWIEj-89" vertex="1">
          <mxGeometry x="30" width="150" height="30" as="geometry">
            <mxRectangle width="150" height="30" as="alternateBounds" />
          </mxGeometry>
        </mxCell>
        <mxCell id="hqyqY9_k0z_B1ryHWIEj-92" value="" style="shape=tableRow;horizontal=0;startSize=0;swimlaneHead=0;swimlaneBody=0;fillColor=none;collapsible=0;dropTarget=0;points=[[0,0.5],[1,0.5]];portConstraint=eastwest;top=0;left=0;right=0;bottom=0;" parent="hqyqY9_k0z_B1ryHWIEj-82" vertex="1">
          <mxGeometry y="120" width="180" height="30" as="geometry" />
        </mxCell>
        <mxCell id="hqyqY9_k0z_B1ryHWIEj-93" value="" style="shape=partialRectangle;connectable=0;fillColor=none;top=0;left=0;bottom=0;right=0;editable=1;overflow=hidden;whiteSpace=wrap;html=1;" parent="hqyqY9_k0z_B1ryHWIEj-92" vertex="1">
          <mxGeometry width="30" height="30" as="geometry">
            <mxRectangle width="30" height="30" as="alternateBounds" />
          </mxGeometry>
        </mxCell>
        <mxCell id="hqyqY9_k0z_B1ryHWIEj-94" value="" style="shape=partialRectangle;connectable=0;fillColor=none;top=0;left=0;bottom=0;right=0;align=left;spacingLeft=6;overflow=hidden;whiteSpace=wrap;html=1;" parent="hqyqY9_k0z_B1ryHWIEj-92" vertex="1">
          <mxGeometry x="30" width="150" height="30" as="geometry">
            <mxRectangle width="150" height="30" as="alternateBounds" />
          </mxGeometry>
        </mxCell>
        <mxCell id="hqyqY9_k0z_B1ryHWIEj-108" value="" style="edgeStyle=entityRelationEdgeStyle;fontSize=12;html=1;endArrow=ERoneToMany;rounded=0;entryX=0;entryY=0.5;entryDx=0;entryDy=0;exitX=1;exitY=0.5;exitDx=0;exitDy=0;startArrow=none;startFill=0;" parent="1" source="hqyqY9_k0z_B1ryHWIEj-83" target="hqyqY9_k0z_B1ryHWIEj-188" edge="1">
          <mxGeometry width="100" height="100" relative="1" as="geometry">
            <mxPoint x="190" y="760" as="sourcePoint" />
            <mxPoint x="290" y="660" as="targetPoint" />
          </mxGeometry>
        </mxCell>
        <mxCell id="hqyqY9_k0z_B1ryHWIEj-110" value="" style="verticalLabelPosition=bottom;verticalAlign=top;html=1;shape=mxgraph.basic.rect;fillColor2=none;strokeWidth=1;size=20;indent=5;" parent="1" vertex="1">
          <mxGeometry x="510" y="1430" width="120" height="60" as="geometry" />
        </mxCell>
        <mxCell id="hqyqY9_k0z_B1ryHWIEj-111" value="" style="verticalLabelPosition=bottom;verticalAlign=top;html=1;shape=mxgraph.basic.rect;fillColor2=none;strokeWidth=1;size=20;indent=5;" parent="1" vertex="1">
          <mxGeometry x="510" y="1310" width="120" height="60" as="geometry" />
        </mxCell>
        <mxCell id="hqyqY9_k0z_B1ryHWIEj-112" value="" style="verticalLabelPosition=bottom;verticalAlign=top;html=1;shape=mxgraph.basic.rect;fillColor2=none;strokeWidth=1;size=20;indent=5;" parent="1" vertex="1">
          <mxGeometry x="510" y="1550" width="120" height="60" as="geometry" />
        </mxCell>
        <mxCell id="hqyqY9_k0z_B1ryHWIEj-113" value="user" style="text;html=1;strokeColor=none;fillColor=none;align=center;verticalAlign=middle;whiteSpace=wrap;rounded=0;" parent="1" vertex="1">
          <mxGeometry x="-440" y="1400" width="60" height="30" as="geometry" />
        </mxCell>
        <mxCell id="hqyqY9_k0z_B1ryHWIEj-115" value="apperard" style="text;html=1;strokeColor=none;fillColor=none;align=center;verticalAlign=middle;whiteSpace=wrap;rounded=0;" parent="1" vertex="1">
          <mxGeometry x="530" y="1320" width="60" height="30" as="geometry" />
        </mxCell>
        <mxCell id="hqyqY9_k0z_B1ryHWIEj-116" value="" style="endArrow=classic;html=1;rounded=0;exitX=0.025;exitY=0.556;exitDx=0;exitDy=0;exitPerimeter=0;" parent="1" source="hqyqY9_k0z_B1ryHWIEj-111" edge="1">
          <mxGeometry width="50" height="50" relative="1" as="geometry">
            <mxPoint x="170" y="1440" as="sourcePoint" />
            <mxPoint x="230" y="1420" as="targetPoint" />
          </mxGeometry>
        </mxCell>
        <mxCell id="hqyqY9_k0z_B1ryHWIEj-118" value="apperard" style="text;html=1;strokeColor=none;fillColor=none;align=center;verticalAlign=middle;whiteSpace=wrap;rounded=0;" parent="1" vertex="1">
          <mxGeometry x="530" y="1440" width="60" height="30" as="geometry" />
        </mxCell>
        <mxCell id="hqyqY9_k0z_B1ryHWIEj-119" value="apperard" style="text;html=1;strokeColor=none;fillColor=none;align=center;verticalAlign=middle;whiteSpace=wrap;rounded=0;" parent="1" vertex="1">
          <mxGeometry x="530" y="1560" width="60" height="30" as="geometry" />
        </mxCell>
        <mxCell id="hqyqY9_k0z_B1ryHWIEj-120" value="" style="endArrow=classic;html=1;rounded=0;exitX=0.008;exitY=0.644;exitDx=0;exitDy=0;exitPerimeter=0;" parent="1" source="hqyqY9_k0z_B1ryHWIEj-110" edge="1">
          <mxGeometry width="50" height="50" relative="1" as="geometry">
            <mxPoint x="523" y="1353" as="sourcePoint" />
            <mxPoint x="230" y="1440" as="targetPoint" />
          </mxGeometry>
        </mxCell>
        <mxCell id="hqyqY9_k0z_B1ryHWIEj-121" value="" style="endArrow=classic;html=1;rounded=0;" parent="1" edge="1">
          <mxGeometry width="50" height="50" relative="1" as="geometry">
            <mxPoint x="500" y="1580" as="sourcePoint" />
            <mxPoint x="230" y="1450" as="targetPoint" />
          </mxGeometry>
        </mxCell>
        <mxCell id="hqyqY9_k0z_B1ryHWIEj-122" value="" style="rounded=0;whiteSpace=wrap;html=1;" parent="1" vertex="1">
          <mxGeometry x="100" y="1410" width="120" height="60" as="geometry" />
        </mxCell>
        <mxCell id="hqyqY9_k0z_B1ryHWIEj-123" value="job X" style="text;html=1;strokeColor=none;fillColor=none;align=center;verticalAlign=middle;whiteSpace=wrap;rounded=0;" parent="1" vertex="1">
          <mxGeometry x="120" y="1430" width="60" height="30" as="geometry" />
        </mxCell>
        <mxCell id="hqyqY9_k0z_B1ryHWIEj-124" value="" style="verticalLabelPosition=bottom;verticalAlign=top;html=1;shape=mxgraph.basic.rect;fillColor2=none;strokeWidth=1;size=20;indent=5;" parent="1" vertex="1">
          <mxGeometry x="-70" y="1470" width="120" height="60" as="geometry" />
        </mxCell>
        <mxCell id="hqyqY9_k0z_B1ryHWIEj-125" value="" style="verticalLabelPosition=bottom;verticalAlign=top;html=1;shape=mxgraph.basic.rect;fillColor2=none;strokeWidth=1;size=20;indent=5;" parent="1" vertex="1">
          <mxGeometry x="-70" y="1350" width="120" height="60" as="geometry" />
        </mxCell>
        <mxCell id="hqyqY9_k0z_B1ryHWIEj-126" value="" style="verticalLabelPosition=bottom;verticalAlign=top;html=1;shape=mxgraph.basic.rect;fillColor2=none;strokeWidth=1;size=20;indent=5;" parent="1" vertex="1">
          <mxGeometry x="-70" y="1590" width="120" height="60" as="geometry" />
        </mxCell>
        <mxCell id="hqyqY9_k0z_B1ryHWIEj-127" value="user: 4" style="text;html=1;strokeColor=none;fillColor=none;align=center;verticalAlign=middle;whiteSpace=wrap;rounded=0;" parent="1" vertex="1">
          <mxGeometry x="-50" y="1360" width="60" height="30" as="geometry" />
        </mxCell>
        <mxCell id="hqyqY9_k0z_B1ryHWIEj-128" value="" style="endArrow=classic;html=1;rounded=0;exitX=0.025;exitY=0.556;exitDx=0;exitDy=0;exitPerimeter=0;" parent="1" source="hqyqY9_k0z_B1ryHWIEj-125" edge="1">
          <mxGeometry width="50" height="50" relative="1" as="geometry">
            <mxPoint x="-410" y="1480" as="sourcePoint" />
            <mxPoint x="-350" y="1460" as="targetPoint" />
          </mxGeometry>
        </mxCell>
        <mxCell id="hqyqY9_k0z_B1ryHWIEj-129" value="user: 4" style="text;html=1;strokeColor=none;fillColor=none;align=center;verticalAlign=middle;whiteSpace=wrap;rounded=0;" parent="1" vertex="1">
          <mxGeometry x="-50" y="1480" width="60" height="30" as="geometry" />
        </mxCell>
        <mxCell id="hqyqY9_k0z_B1ryHWIEj-130" value="user: 4" style="text;html=1;strokeColor=none;fillColor=none;align=center;verticalAlign=middle;whiteSpace=wrap;rounded=0;" parent="1" vertex="1">
          <mxGeometry x="-50" y="1600" width="60" height="30" as="geometry" />
        </mxCell>
        <mxCell id="hqyqY9_k0z_B1ryHWIEj-131" value="" style="endArrow=classic;html=1;rounded=0;exitX=0.008;exitY=0.644;exitDx=0;exitDy=0;exitPerimeter=0;" parent="1" source="hqyqY9_k0z_B1ryHWIEj-124" edge="1">
          <mxGeometry width="50" height="50" relative="1" as="geometry">
            <mxPoint x="-57" y="1393" as="sourcePoint" />
            <mxPoint x="-350" y="1480" as="targetPoint" />
          </mxGeometry>
        </mxCell>
        <mxCell id="hqyqY9_k0z_B1ryHWIEj-132" value="" style="endArrow=classic;html=1;rounded=0;" parent="1" edge="1">
          <mxGeometry width="50" height="50" relative="1" as="geometry">
            <mxPoint x="-80" y="1620" as="sourcePoint" />
            <mxPoint x="-350" y="1490" as="targetPoint" />
          </mxGeometry>
        </mxCell>
        <mxCell id="hqyqY9_k0z_B1ryHWIEj-133" value="" style="rounded=0;whiteSpace=wrap;html=1;" parent="1" vertex="1">
          <mxGeometry x="-480" y="1450" width="120" height="60" as="geometry" />
        </mxCell>
        <mxCell id="hqyqY9_k0z_B1ryHWIEj-134" value="id: 4" style="text;html=1;strokeColor=none;fillColor=none;align=center;verticalAlign=middle;whiteSpace=wrap;rounded=0;" parent="1" vertex="1">
          <mxGeometry x="-460" y="1470" width="60" height="30" as="geometry" />
        </mxCell>
        <mxCell id="hqyqY9_k0z_B1ryHWIEj-136" value="job seeking" style="text;html=1;strokeColor=none;fillColor=none;align=center;verticalAlign=middle;whiteSpace=wrap;rounded=0;" parent="1" vertex="1">
          <mxGeometry x="-70" y="1310" width="60" height="30" as="geometry" />
        </mxCell>
        <mxCell id="hqyqY9_k0z_B1ryHWIEj-137" value="" style="edgeStyle=entityRelationEdgeStyle;fontSize=12;html=1;endArrow=ERoneToMany;rounded=0;entryX=0;entryY=0.5;entryDx=0;entryDy=0;exitX=1;exitY=0.5;exitDx=0;exitDy=0;" parent="1" source="hqyqY9_k0z_B1ryHWIEj-15" target="hqyqY9_k0z_B1ryHWIEj-197" edge="1">
          <mxGeometry width="100" height="100" relative="1" as="geometry">
            <mxPoint x="300" y="660" as="sourcePoint" />
            <mxPoint x="400" y="560" as="targetPoint" />
          </mxGeometry>
        </mxCell>
        <mxCell id="hqyqY9_k0z_B1ryHWIEj-138" value="job seeking relationship" style="shape=table;startSize=30;container=1;collapsible=1;childLayout=tableLayout;fixedRows=1;rowLines=0;fontStyle=1;align=center;resizeLast=1;html=1;" parent="1" vertex="1">
          <mxGeometry x="-330" y="720" width="180" height="180" as="geometry">
            <mxRectangle x="-400" y="480" width="60" height="30" as="alternateBounds" />
          </mxGeometry>
        </mxCell>
        <mxCell id="hqyqY9_k0z_B1ryHWIEj-139" value="" style="shape=tableRow;horizontal=0;startSize=0;swimlaneHead=0;swimlaneBody=0;fillColor=none;collapsible=0;dropTarget=0;points=[[0,0.5],[1,0.5]];portConstraint=eastwest;top=0;left=0;right=0;bottom=1;" parent="hqyqY9_k0z_B1ryHWIEj-138" vertex="1">
          <mxGeometry y="30" width="180" height="30" as="geometry" />
        </mxCell>
        <mxCell id="hqyqY9_k0z_B1ryHWIEj-140" value="PK" style="shape=partialRectangle;connectable=0;fillColor=none;top=0;left=0;bottom=0;right=0;fontStyle=1;overflow=hidden;whiteSpace=wrap;html=1;" parent="hqyqY9_k0z_B1ryHWIEj-139" vertex="1">
          <mxGeometry width="30" height="30" as="geometry">
            <mxRectangle width="30" height="30" as="alternateBounds" />
          </mxGeometry>
        </mxCell>
        <mxCell id="hqyqY9_k0z_B1ryHWIEj-141" value="id" style="shape=partialRectangle;connectable=0;fillColor=none;top=0;left=0;bottom=0;right=0;align=left;spacingLeft=6;fontStyle=5;overflow=hidden;whiteSpace=wrap;html=1;" parent="hqyqY9_k0z_B1ryHWIEj-139" vertex="1">
          <mxGeometry x="30" width="150" height="30" as="geometry">
            <mxRectangle width="150" height="30" as="alternateBounds" />
          </mxGeometry>
        </mxCell>
        <mxCell id="hqyqY9_k0z_B1ryHWIEj-142" value="" style="shape=tableRow;horizontal=0;startSize=0;swimlaneHead=0;swimlaneBody=0;fillColor=none;collapsible=0;dropTarget=0;points=[[0,0.5],[1,0.5]];portConstraint=eastwest;top=0;left=0;right=0;bottom=0;" parent="hqyqY9_k0z_B1ryHWIEj-138" vertex="1">
          <mxGeometry y="60" width="180" height="40" as="geometry" />
        </mxCell>
        <mxCell id="hqyqY9_k0z_B1ryHWIEj-143" value="" style="shape=partialRectangle;connectable=0;fillColor=none;top=0;left=0;bottom=0;right=0;editable=1;overflow=hidden;whiteSpace=wrap;html=1;" parent="hqyqY9_k0z_B1ryHWIEj-142" vertex="1">
          <mxGeometry width="30" height="40" as="geometry">
            <mxRectangle width="30" height="40" as="alternateBounds" />
          </mxGeometry>
        </mxCell>
        <mxCell id="hqyqY9_k0z_B1ryHWIEj-144" value="seeking" style="shape=partialRectangle;connectable=0;fillColor=none;top=0;left=0;bottom=0;right=0;align=left;spacingLeft=6;overflow=hidden;whiteSpace=wrap;html=1;" parent="hqyqY9_k0z_B1ryHWIEj-142" vertex="1">
          <mxGeometry x="30" width="150" height="40" as="geometry">
            <mxRectangle width="150" height="40" as="alternateBounds" />
          </mxGeometry>
        </mxCell>
        <mxCell id="hqyqY9_k0z_B1ryHWIEj-145" value="" style="shape=tableRow;horizontal=0;startSize=0;swimlaneHead=0;swimlaneBody=0;fillColor=none;collapsible=0;dropTarget=0;points=[[0,0.5],[1,0.5]];portConstraint=eastwest;top=0;left=0;right=0;bottom=0;" parent="hqyqY9_k0z_B1ryHWIEj-138" vertex="1">
          <mxGeometry y="100" width="180" height="30" as="geometry" />
        </mxCell>
        <mxCell id="hqyqY9_k0z_B1ryHWIEj-146" value="" style="shape=partialRectangle;connectable=0;fillColor=none;top=0;left=0;bottom=0;right=0;editable=1;overflow=hidden;whiteSpace=wrap;html=1;" parent="hqyqY9_k0z_B1ryHWIEj-145" vertex="1">
          <mxGeometry width="30" height="30" as="geometry">
            <mxRectangle width="30" height="30" as="alternateBounds" />
          </mxGeometry>
        </mxCell>
        <mxCell id="hqyqY9_k0z_B1ryHWIEj-147" value="job" style="shape=partialRectangle;connectable=0;fillColor=none;top=0;left=0;bottom=0;right=0;align=left;spacingLeft=6;overflow=hidden;whiteSpace=wrap;html=1;" parent="hqyqY9_k0z_B1ryHWIEj-145" vertex="1">
          <mxGeometry x="30" width="150" height="30" as="geometry">
            <mxRectangle width="150" height="30" as="alternateBounds" />
          </mxGeometry>
        </mxCell>
        <mxCell id="hqyqY9_k0z_B1ryHWIEj-148" value="" style="shape=tableRow;horizontal=0;startSize=0;swimlaneHead=0;swimlaneBody=0;fillColor=none;collapsible=0;dropTarget=0;points=[[0,0.5],[1,0.5]];portConstraint=eastwest;top=0;left=0;right=0;bottom=0;" parent="hqyqY9_k0z_B1ryHWIEj-138" vertex="1">
          <mxGeometry y="130" width="180" height="50" as="geometry" />
        </mxCell>
        <mxCell id="hqyqY9_k0z_B1ryHWIEj-149" value="" style="shape=partialRectangle;connectable=0;fillColor=none;top=0;left=0;bottom=0;right=0;editable=1;overflow=hidden;whiteSpace=wrap;html=1;" parent="hqyqY9_k0z_B1ryHWIEj-148" vertex="1">
          <mxGeometry width="30" height="50" as="geometry">
            <mxRectangle width="30" height="50" as="alternateBounds" />
          </mxGeometry>
        </mxCell>
        <mxCell id="hqyqY9_k0z_B1ryHWIEj-150" value="" style="shape=partialRectangle;connectable=0;fillColor=none;top=0;left=0;bottom=0;right=0;align=left;spacingLeft=6;overflow=hidden;whiteSpace=wrap;html=1;" parent="hqyqY9_k0z_B1ryHWIEj-148" vertex="1">
          <mxGeometry x="30" width="150" height="50" as="geometry">
            <mxRectangle width="150" height="50" as="alternateBounds" />
          </mxGeometry>
        </mxCell>
        <mxCell id="hqyqY9_k0z_B1ryHWIEj-151" value="job: 10 ,&amp;nbsp; seeking: 2" style="text;html=1;strokeColor=none;fillColor=none;align=center;verticalAlign=middle;whiteSpace=wrap;rounded=0;fontStyle=1" parent="1" vertex="1">
          <mxGeometry x="-510" y="1140" width="170" height="30" as="geometry" />
        </mxCell>
        <mxCell id="hqyqY9_k0z_B1ryHWIEj-153" value="job: 10 ,&amp;nbsp; seeking: 3" style="text;html=1;strokeColor=none;fillColor=none;align=center;verticalAlign=middle;whiteSpace=wrap;rounded=0;fontStyle=1" parent="1" vertex="1">
          <mxGeometry x="-510" y="1170" width="170" height="30" as="geometry" />
        </mxCell>
        <mxCell id="hqyqY9_k0z_B1ryHWIEj-154" value="job: 11 ,&amp;nbsp; seeking: 2" style="text;html=1;strokeColor=none;fillColor=none;align=center;verticalAlign=middle;whiteSpace=wrap;rounded=0;fontStyle=1" parent="1" vertex="1">
          <mxGeometry x="-510" y="1200" width="170" height="30" as="geometry" />
        </mxCell>
        <mxCell id="hqyqY9_k0z_B1ryHWIEj-155" value="job: 11 ,&amp;nbsp; seeking: 3" style="text;html=1;strokeColor=none;fillColor=none;align=center;verticalAlign=middle;whiteSpace=wrap;rounded=0;fontStyle=1" parent="1" vertex="1">
          <mxGeometry x="-510" y="1230" width="170" height="30" as="geometry" />
        </mxCell>
        <mxCell id="hqyqY9_k0z_B1ryHWIEj-156" value="job: 11 ,&amp;nbsp; seeking: 4" style="text;html=1;strokeColor=none;fillColor=none;align=center;verticalAlign=middle;whiteSpace=wrap;rounded=0;fontStyle=1" parent="1" vertex="1">
          <mxGeometry x="-510" y="1260" width="170" height="30" as="geometry" />
        </mxCell>
        <mxCell id="hqyqY9_k0z_B1ryHWIEj-157" value="&lt;b&gt;job seeking &lt;br&gt;many to many relationship &lt;br&gt;examples&lt;/b&gt;" style="text;html=1;strokeColor=none;fillColor=none;align=center;verticalAlign=middle;whiteSpace=wrap;rounded=0;" parent="1" vertex="1">
          <mxGeometry x="-720" y="1150" width="190" height="80" as="geometry" />
        </mxCell>
        <mxCell id="hqyqY9_k0z_B1ryHWIEj-187" value="chat_message" style="shape=table;startSize=30;container=1;collapsible=1;childLayout=tableLayout;fixedRows=1;rowLines=0;fontStyle=1;align=center;resizeLast=1;html=1;" parent="1" vertex="1">
          <mxGeometry x="720" y="600" width="180" height="210" as="geometry" />
        </mxCell>
        <mxCell id="hqyqY9_k0z_B1ryHWIEj-188" value="" style="shape=tableRow;horizontal=0;startSize=0;swimlaneHead=0;swimlaneBody=0;fillColor=none;collapsible=0;dropTarget=0;points=[[0,0.5],[1,0.5]];portConstraint=eastwest;top=0;left=0;right=0;bottom=1;" parent="hqyqY9_k0z_B1ryHWIEj-187" vertex="1">
          <mxGeometry y="30" width="180" height="30" as="geometry" />
        </mxCell>
        <mxCell id="hqyqY9_k0z_B1ryHWIEj-189" value="PK" style="shape=partialRectangle;connectable=0;fillColor=none;top=0;left=0;bottom=0;right=0;fontStyle=1;overflow=hidden;whiteSpace=wrap;html=1;" parent="hqyqY9_k0z_B1ryHWIEj-188" vertex="1">
          <mxGeometry width="30" height="30" as="geometry">
            <mxRectangle width="30" height="30" as="alternateBounds" />
          </mxGeometry>
        </mxCell>
        <mxCell id="hqyqY9_k0z_B1ryHWIEj-190" value="id" style="shape=partialRectangle;connectable=0;fillColor=none;top=0;left=0;bottom=0;right=0;align=left;spacingLeft=6;fontStyle=5;overflow=hidden;whiteSpace=wrap;html=1;" parent="hqyqY9_k0z_B1ryHWIEj-188" vertex="1">
          <mxGeometry x="30" width="150" height="30" as="geometry">
            <mxRectangle width="150" height="30" as="alternateBounds" />
          </mxGeometry>
        </mxCell>
        <mxCell id="hqyqY9_k0z_B1ryHWIEj-191" value="" style="shape=tableRow;horizontal=0;startSize=0;swimlaneHead=0;swimlaneBody=0;fillColor=none;collapsible=0;dropTarget=0;points=[[0,0.5],[1,0.5]];portConstraint=eastwest;top=0;left=0;right=0;bottom=0;" parent="hqyqY9_k0z_B1ryHWIEj-187" vertex="1">
          <mxGeometry y="60" width="180" height="30" as="geometry" />
        </mxCell>
        <mxCell id="hqyqY9_k0z_B1ryHWIEj-192" value="" style="shape=partialRectangle;connectable=0;fillColor=none;top=0;left=0;bottom=0;right=0;editable=1;overflow=hidden;whiteSpace=wrap;html=1;" parent="hqyqY9_k0z_B1ryHWIEj-191" vertex="1">
          <mxGeometry width="30" height="30" as="geometry">
            <mxRectangle width="30" height="30" as="alternateBounds" />
          </mxGeometry>
        </mxCell>
        <mxCell id="hqyqY9_k0z_B1ryHWIEj-193" value="chat" style="shape=partialRectangle;connectable=0;fillColor=none;top=0;left=0;bottom=0;right=0;align=left;spacingLeft=6;overflow=hidden;whiteSpace=wrap;html=1;" parent="hqyqY9_k0z_B1ryHWIEj-191" vertex="1">
          <mxGeometry x="30" width="150" height="30" as="geometry">
            <mxRectangle width="150" height="30" as="alternateBounds" />
          </mxGeometry>
        </mxCell>
        <mxCell id="hqyqY9_k0z_B1ryHWIEj-194" value="" style="shape=tableRow;horizontal=0;startSize=0;swimlaneHead=0;swimlaneBody=0;fillColor=none;collapsible=0;dropTarget=0;points=[[0,0.5],[1,0.5]];portConstraint=eastwest;top=0;left=0;right=0;bottom=0;" parent="hqyqY9_k0z_B1ryHWIEj-187" vertex="1">
          <mxGeometry y="90" width="180" height="30" as="geometry" />
        </mxCell>
        <mxCell id="hqyqY9_k0z_B1ryHWIEj-195" value="" style="shape=partialRectangle;connectable=0;fillColor=none;top=0;left=0;bottom=0;right=0;editable=1;overflow=hidden;whiteSpace=wrap;html=1;" parent="hqyqY9_k0z_B1ryHWIEj-194" vertex="1">
          <mxGeometry width="30" height="30" as="geometry">
            <mxRectangle width="30" height="30" as="alternateBounds" />
          </mxGeometry>
        </mxCell>
        <mxCell id="hqyqY9_k0z_B1ryHWIEj-196" value="date" style="shape=partialRectangle;connectable=0;fillColor=none;top=0;left=0;bottom=0;right=0;align=left;spacingLeft=6;overflow=hidden;whiteSpace=wrap;html=1;" parent="hqyqY9_k0z_B1ryHWIEj-194" vertex="1">
          <mxGeometry x="30" width="150" height="30" as="geometry">
            <mxRectangle width="150" height="30" as="alternateBounds" />
          </mxGeometry>
        </mxCell>
        <mxCell id="hqyqY9_k0z_B1ryHWIEj-197" value="" style="shape=tableRow;horizontal=0;startSize=0;swimlaneHead=0;swimlaneBody=0;fillColor=none;collapsible=0;dropTarget=0;points=[[0,0.5],[1,0.5]];portConstraint=eastwest;top=0;left=0;right=0;bottom=0;" parent="hqyqY9_k0z_B1ryHWIEj-187" vertex="1">
          <mxGeometry y="120" width="180" height="30" as="geometry" />
        </mxCell>
        <mxCell id="hqyqY9_k0z_B1ryHWIEj-198" value="" style="shape=partialRectangle;connectable=0;fillColor=none;top=0;left=0;bottom=0;right=0;editable=1;overflow=hidden;whiteSpace=wrap;html=1;" parent="hqyqY9_k0z_B1ryHWIEj-197" vertex="1">
          <mxGeometry width="30" height="30" as="geometry">
            <mxRectangle width="30" height="30" as="alternateBounds" />
          </mxGeometry>
        </mxCell>
        <mxCell id="hqyqY9_k0z_B1ryHWIEj-199" value="owner" style="shape=partialRectangle;connectable=0;fillColor=none;top=0;left=0;bottom=0;right=0;align=left;spacingLeft=6;overflow=hidden;whiteSpace=wrap;html=1;" parent="hqyqY9_k0z_B1ryHWIEj-197" vertex="1">
          <mxGeometry x="30" width="150" height="30" as="geometry">
            <mxRectangle width="150" height="30" as="alternateBounds" />
          </mxGeometry>
        </mxCell>
        <mxCell id="hqyqY9_k0z_B1ryHWIEj-200" value="" style="shape=tableRow;horizontal=0;startSize=0;swimlaneHead=0;swimlaneBody=0;fillColor=none;collapsible=0;dropTarget=0;points=[[0,0.5],[1,0.5]];portConstraint=eastwest;top=0;left=0;right=0;bottom=0;" parent="hqyqY9_k0z_B1ryHWIEj-187" vertex="1">
          <mxGeometry y="150" width="180" height="30" as="geometry" />
        </mxCell>
        <mxCell id="hqyqY9_k0z_B1ryHWIEj-201" value="" style="shape=partialRectangle;connectable=0;fillColor=none;top=0;left=0;bottom=0;right=0;editable=1;overflow=hidden;whiteSpace=wrap;html=1;" parent="hqyqY9_k0z_B1ryHWIEj-200" vertex="1">
          <mxGeometry width="30" height="30" as="geometry">
            <mxRectangle width="30" height="30" as="alternateBounds" />
          </mxGeometry>
        </mxCell>
        <mxCell id="hqyqY9_k0z_B1ryHWIEj-202" value="content" style="shape=partialRectangle;connectable=0;fillColor=none;top=0;left=0;bottom=0;right=0;align=left;spacingLeft=6;overflow=hidden;whiteSpace=wrap;html=1;" parent="hqyqY9_k0z_B1ryHWIEj-200" vertex="1">
          <mxGeometry x="30" width="150" height="30" as="geometry">
            <mxRectangle width="150" height="30" as="alternateBounds" />
          </mxGeometry>
        </mxCell>
        <mxCell id="hqyqY9_k0z_B1ryHWIEj-203" value="" style="shape=tableRow;horizontal=0;startSize=0;swimlaneHead=0;swimlaneBody=0;fillColor=none;collapsible=0;dropTarget=0;points=[[0,0.5],[1,0.5]];portConstraint=eastwest;top=0;left=0;right=0;bottom=0;" parent="hqyqY9_k0z_B1ryHWIEj-187" vertex="1">
          <mxGeometry y="180" width="180" height="30" as="geometry" />
        </mxCell>
        <mxCell id="hqyqY9_k0z_B1ryHWIEj-204" value="" style="shape=partialRectangle;connectable=0;fillColor=none;top=0;left=0;bottom=0;right=0;editable=1;overflow=hidden;whiteSpace=wrap;html=1;" parent="hqyqY9_k0z_B1ryHWIEj-203" vertex="1">
          <mxGeometry width="30" height="30" as="geometry">
            <mxRectangle width="30" height="30" as="alternateBounds" />
          </mxGeometry>
        </mxCell>
        <mxCell id="hqyqY9_k0z_B1ryHWIEj-205" value="apeard_link" style="shape=partialRectangle;connectable=0;fillColor=none;top=0;left=0;bottom=0;right=0;align=left;spacingLeft=6;overflow=hidden;whiteSpace=wrap;html=1;" parent="hqyqY9_k0z_B1ryHWIEj-203" vertex="1">
          <mxGeometry x="30" width="150" height="30" as="geometry">
            <mxRectangle width="150" height="30" as="alternateBounds" />
          </mxGeometry>
        </mxCell>
        <mxCell id="hqyqY9_k0z_B1ryHWIEj-206" value="&lt;b&gt;job seeking から user への&lt;br&gt;関数従属性によって user が決まるので、&lt;br&gt;job seeking relationship から user への&lt;br&gt;直接の矢印は必要ない&lt;/b&gt;" style="text;html=1;strokeColor=none;fillColor=none;align=left;verticalAlign=middle;whiteSpace=wrap;rounded=0;" parent="1" vertex="1">
          <mxGeometry x="-330" y="1150" width="270" height="80" as="geometry" />
        </mxCell>
        <mxCell id="hqyqY9_k0z_B1ryHWIEj-207" value="" style="verticalLabelPosition=bottom;verticalAlign=top;html=1;shape=mxgraph.basic.rect;fillColor2=none;strokeWidth=1;size=20;indent=5;fillColor=#5AE87C;opacity=20;strokeColor=#82b366;" parent="1" vertex="1">
          <mxGeometry x="-120" y="360" width="540" height="520" as="geometry" />
        </mxCell>
        <mxCell id="hqyqY9_k0z_B1ryHWIEj-209" value="&lt;div style=&quot;font-size: 18px;&quot;&gt;&lt;b style=&quot;&quot;&gt;&lt;font style=&quot;font-size: 18px;&quot;&gt;## Operation Definition&lt;/font&gt;&lt;/b&gt;&lt;/div&gt;&lt;div style=&quot;font-size: 18px;&quot;&gt;&lt;b&gt;&lt;font style=&quot;font-size: 18px;&quot;&gt;&lt;br&gt;&lt;/font&gt;&lt;/b&gt;&lt;/div&gt;&lt;div style=&quot;font-size: 18px;&quot;&gt;&lt;b&gt;&lt;font style=&quot;font-size: 18px;&quot;&gt;* user&lt;/font&gt;&lt;/b&gt;&lt;/div&gt;&lt;div style=&quot;font-size: 18px;&quot;&gt;&lt;b&gt;&lt;font style=&quot;font-size: 18px;&quot;&gt;&amp;nbsp; &amp;nbsp;* add user&lt;/font&gt;&lt;/b&gt;&lt;/div&gt;&lt;div style=&quot;font-size: 18px;&quot;&gt;&lt;b&gt;&lt;font style=&quot;font-size: 18px;&quot;&gt;* job listing&lt;/font&gt;&lt;/b&gt;&lt;/div&gt;&lt;div style=&quot;font-size: 18px;&quot;&gt;&lt;b&gt;&lt;font style=&quot;font-size: 18px;&quot;&gt;&amp;nbsp; &amp;nbsp; * define job listing&lt;/font&gt;&lt;/b&gt;&lt;/div&gt;&lt;div style=&quot;font-size: 18px;&quot;&gt;&lt;b&gt;&lt;font style=&quot;font-size: 18px;&quot;&gt;&amp;nbsp; &amp;nbsp; &amp;nbsp; &amp;nbsp; * (puiblication range : optional)&lt;/font&gt;&lt;/b&gt;&lt;/div&gt;&lt;div style=&quot;font-size: 18px;&quot;&gt;&lt;b&gt;&lt;font style=&quot;font-size: 18px;&quot;&gt;&amp;nbsp; &amp;nbsp; * open job listing&lt;/font&gt;&lt;/b&gt;&lt;/div&gt;&lt;div style=&quot;font-size: 18px;&quot;&gt;&lt;b&gt;&lt;font style=&quot;font-size: 18px;&quot;&gt;&amp;nbsp; &amp;nbsp; * close job listing&lt;/font&gt;&lt;/b&gt;&lt;/div&gt;&lt;div style=&quot;font-size: 18px;&quot;&gt;&lt;b&gt;&lt;font style=&quot;font-size: 18px;&quot;&gt;* job seeking&lt;/font&gt;&lt;/b&gt;&lt;/div&gt;&lt;div style=&quot;font-size: 18px;&quot;&gt;&lt;b&gt;&lt;font style=&quot;font-size: 18px;&quot;&gt;&amp;nbsp; &amp;nbsp; * define job seeking&lt;/font&gt;&lt;/b&gt;&lt;/div&gt;&lt;div style=&quot;font-size: 18px;&quot;&gt;&lt;b&gt;&lt;font style=&quot;font-size: 18px;&quot;&gt;&amp;nbsp; &amp;nbsp; &amp;nbsp; &amp;nbsp; * (puiblication range : optional)&lt;/font&gt;&lt;/b&gt;&lt;/div&gt;&lt;div style=&quot;font-size: 18px;&quot;&gt;&lt;b&gt;&lt;font style=&quot;font-size: 18px;&quot;&gt;&amp;nbsp; &amp;nbsp; * open job seeking&lt;/font&gt;&lt;/b&gt;&lt;/div&gt;&lt;div style=&quot;font-size: 18px;&quot;&gt;&lt;b&gt;&lt;font style=&quot;font-size: 18px;&quot;&gt;&amp;nbsp; &amp;nbsp; * close job seeking&lt;/font&gt;&lt;/b&gt;&lt;/div&gt;&lt;div style=&quot;font-size: 18px;&quot;&gt;&lt;b style=&quot;&quot;&gt;&lt;font style=&quot;font-size: 18px;&quot;&gt;* login / logout&lt;/font&gt;&lt;/b&gt;&lt;/div&gt;" style="text;html=1;strokeColor=none;fillColor=none;align=left;verticalAlign=middle;whiteSpace=wrap;rounded=0;" parent="1" vertex="1">
          <mxGeometry x="80" y="900" width="430" height="350" as="geometry" />
        </mxCell>
      </root>
    </mxGraphModel>
  </diagram>
  <diagram id="tOMllP42OeVvAV_Vr-hk" name="Page-2">
    <mxGraphModel grid="1" page="1" gridSize="10" guides="1" tooltips="1" connect="1" arrows="1" fold="1" pageScale="1" pageWidth="850" pageHeight="1100" math="0" shadow="0">
      <root>
        <mxCell id="0" />
        <mxCell id="1" parent="0" />
        <mxCell id="U-T-BdLKFEDcstgPt5DE-1" value="" style="whiteSpace=wrap;html=1;aspect=fixed;" vertex="1" parent="1">
          <mxGeometry x="150" y="100" width="340" height="340" as="geometry" />
        </mxCell>
        <mxCell id="bCj7t-BoAOfdokbfjX7s-2" value="" style="whiteSpace=wrap;html=1;aspect=fixed;" vertex="1" parent="1">
          <mxGeometry x="90" y="90" width="260" height="260" as="geometry" />
        </mxCell>
        <mxCell id="bCj7t-BoAOfdokbfjX7s-1" value="" style="whiteSpace=wrap;html=1;aspect=fixed;" vertex="1" parent="1">
          <mxGeometry x="60" y="440" width="250" height="250" as="geometry" />
        </mxCell>
        <mxCell id="bCj7t-BoAOfdokbfjX7s-3" value="LOGIN BUTTON" style="rounded=1;whiteSpace=wrap;html=1;" vertex="1" parent="1">
          <mxGeometry x="150" y="110" width="120" height="60" as="geometry" />
        </mxCell>
        <mxCell id="bCj7t-BoAOfdokbfjX7s-4" value="NEW ACCOUNT" style="rounded=1;whiteSpace=wrap;html=1;" vertex="1" parent="1">
          <mxGeometry x="150" y="180" width="120" height="60" as="geometry" />
        </mxCell>
        <mxCell id="bCj7t-BoAOfdokbfjX7s-6" value="FORGOT PASSWORD" style="rounded=1;whiteSpace=wrap;html=1;" vertex="1" parent="1">
          <mxGeometry x="160" y="260" width="120" height="60" as="geometry" />
        </mxCell>
        <mxCell id="bCj7t-BoAOfdokbfjX7s-7" value="" style="whiteSpace=wrap;html=1;aspect=fixed;" vertex="1" parent="1">
          <mxGeometry x="400" y="90" width="290" height="290" as="geometry" />
        </mxCell>
        <mxCell id="bCj7t-BoAOfdokbfjX7s-8" value="JOB LISTING" style="rounded=0;whiteSpace=wrap;html=1;" vertex="1" parent="1">
          <mxGeometry x="430" y="120" width="210" height="80" as="geometry" />
        </mxCell>
        <mxCell id="bCj7t-BoAOfdokbfjX7s-9" value="STATUS OF MY APPLICAITION" style="rounded=0;whiteSpace=wrap;html=1;" vertex="1" parent="1">
          <mxGeometry x="430" y="200" width="210" height="80" as="geometry" />
        </mxCell>
        <mxCell id="bCj7t-BoAOfdokbfjX7s-10" value="CHAT" style="rounded=0;whiteSpace=wrap;html=1;" vertex="1" parent="1">
          <mxGeometry x="430" y="280" width="210" height="80" as="geometry" />
        </mxCell>
        <mxCell id="bCj7t-BoAOfdokbfjX7s-11" value="DESKTOP ONLY" style="rounded=0;whiteSpace=wrap;html=1;" vertex="1" parent="1">
          <mxGeometry x="360" y="-10" width="120" height="60" as="geometry" />
        </mxCell>
      </root>
    </mxGraphModel>
  </diagram>
  <diagram id="jtG6zkb15kQFFEzW7fzD" name="Pages-Statement">
    <mxGraphModel grid="1" page="1" gridSize="10" guides="1" tooltips="1" connect="1" arrows="1" fold="1" pageScale="1" pageWidth="850" pageHeight="1100" math="0" shadow="0">
      <root>
        <mxCell id="0" />
        <mxCell id="1" parent="0" />
        <mxCell id="JhqgPvquoJEDo3xzFfw--1" value="&lt;ul&gt;&lt;li&gt;Description of Shinano&lt;/li&gt;&lt;li&gt;Account Login&lt;/li&gt;&lt;li&gt;Account Creation&lt;/li&gt;&lt;/ul&gt;" style="rounded=1;whiteSpace=wrap;html=1;align=left;" vertex="1" parent="1">
          <mxGeometry x="330" y="180" width="180" height="100" as="geometry" />
        </mxCell>
        <mxCell id="JhqgPvquoJEDo3xzFfw--10" value="list of Job_entries" style="rounded=1;whiteSpace=wrap;html=1;" vertex="1" parent="1">
          <mxGeometry x="433" y="710" width="180" height="100" as="geometry" />
        </mxCell>
        <mxCell id="JhqgPvquoJEDo3xzFfw--11" value="Specific Job_entry page" style="rounded=1;whiteSpace=wrap;html=1;" vertex="1" parent="1">
          <mxGeometry x="433" y="910" width="180" height="100" as="geometry" />
        </mxCell>
        <mxCell id="JhqgPvquoJEDo3xzFfw--12" value="" style="endArrow=classic;html=1;rounded=0;exitX=0.5;exitY=1;exitDx=0;exitDy=0;entryX=0.5;entryY=0;entryDx=0;entryDy=0;" edge="1" parent="1" source="JhqgPvquoJEDo3xzFfw--10" target="JhqgPvquoJEDo3xzFfw--11">
          <mxGeometry relative="1" as="geometry">
            <mxPoint x="603" y="870" as="sourcePoint" />
            <mxPoint x="703" y="870" as="targetPoint" />
          </mxGeometry>
        </mxCell>
        <mxCell id="JhqgPvquoJEDo3xzFfw--13" value="Link" style="edgeLabel;resizable=0;html=1;align=center;verticalAlign=middle;" connectable="0" vertex="1" parent="JhqgPvquoJEDo3xzFfw--12">
          <mxGeometry relative="1" as="geometry" />
        </mxCell>
        <mxCell id="JhqgPvquoJEDo3xzFfw--14" value="Specific User page" style="rounded=1;whiteSpace=wrap;html=1;" vertex="1" parent="1">
          <mxGeometry x="657.96" y="910" width="180" height="100" as="geometry" />
        </mxCell>
        <mxCell id="JhqgPvquoJEDo3xzFfw--15" value="" style="endArrow=classic;html=1;rounded=0;exitX=0.5;exitY=1;exitDx=0;exitDy=0;entryX=0.5;entryY=0;entryDx=0;entryDy=0;" edge="1" parent="1" source="JhqgPvquoJEDo3xzFfw--10" target="JhqgPvquoJEDo3xzFfw--14">
          <mxGeometry relative="1" as="geometry">
            <mxPoint x="683" y="830" as="sourcePoint" />
            <mxPoint x="683" y="900" as="targetPoint" />
          </mxGeometry>
        </mxCell>
        <mxCell id="JhqgPvquoJEDo3xzFfw--16" value="Link" style="edgeLabel;resizable=0;html=1;align=center;verticalAlign=middle;" connectable="0" vertex="1" parent="JhqgPvquoJEDo3xzFfw--15">
          <mxGeometry relative="1" as="geometry" />
        </mxCell>
        <mxCell id="JhqgPvquoJEDo3xzFfw--17" value="" style="endArrow=classic;html=1;rounded=0;exitX=0.5;exitY=0;exitDx=0;exitDy=0;entryX=0.5;entryY=1;entryDx=0;entryDy=0;" edge="1" parent="1" source="JhqgPvquoJEDo3xzFfw--14" target="JhqgPvquoJEDo3xzFfw--10">
          <mxGeometry relative="1" as="geometry">
            <mxPoint x="883" y="760" as="sourcePoint" />
            <mxPoint x="883" y="830" as="targetPoint" />
          </mxGeometry>
        </mxCell>
        <mxCell id="JhqgPvquoJEDo3xzFfw--18" value="Link" style="edgeLabel;resizable=0;html=1;align=center;verticalAlign=middle;" connectable="0" vertex="1" parent="JhqgPvquoJEDo3xzFfw--17">
          <mxGeometry relative="1" as="geometry" />
        </mxCell>
        <mxCell id="JhqgPvquoJEDo3xzFfw--19" value="" style="endArrow=classic;html=1;rounded=0;entryX=0;entryY=0.5;entryDx=0;entryDy=0;exitX=1;exitY=0.5;exitDx=0;exitDy=0;" edge="1" parent="1" source="JhqgPvquoJEDo3xzFfw--11" target="JhqgPvquoJEDo3xzFfw--14">
          <mxGeometry relative="1" as="geometry">
            <mxPoint x="613" y="940" as="sourcePoint" />
            <mxPoint x="993" y="950" as="targetPoint" />
          </mxGeometry>
        </mxCell>
        <mxCell id="JhqgPvquoJEDo3xzFfw--20" value="Link" style="edgeLabel;resizable=0;html=1;align=center;verticalAlign=middle;" connectable="0" vertex="1" parent="JhqgPvquoJEDo3xzFfw--19">
          <mxGeometry relative="1" as="geometry" />
        </mxCell>
        <mxCell id="JhqgPvquoJEDo3xzFfw--21" value="" style="endArrow=classic;html=1;rounded=0;exitX=0.5;exitY=1;exitDx=0;exitDy=0;entryX=0.5;entryY=0;entryDx=0;entryDy=0;" edge="1" parent="1" source="JhqgPvquoJEDo3xzFfw--25" target="JhqgPvquoJEDo3xzFfw--14">
          <mxGeometry relative="1" as="geometry">
            <mxPoint x="1087.96" y="910" as="sourcePoint" />
            <mxPoint x="1087.96" y="980" as="targetPoint" />
          </mxGeometry>
        </mxCell>
        <mxCell id="JhqgPvquoJEDo3xzFfw--22" value="Link" style="edgeLabel;resizable=0;html=1;align=center;verticalAlign=middle;" connectable="0" vertex="1" parent="JhqgPvquoJEDo3xzFfw--21">
          <mxGeometry relative="1" as="geometry" />
        </mxCell>
        <mxCell id="JhqgPvquoJEDo3xzFfw--23" value="" style="endArrow=classic;html=1;rounded=0;exitX=1;exitY=0.5;exitDx=0;exitDy=0;entryX=0.5;entryY=0;entryDx=0;entryDy=0;" edge="1" parent="1" source="JhqgPvquoJEDo3xzFfw--41" target="JhqgPvquoJEDo3xzFfw--40">
          <mxGeometry relative="1" as="geometry">
            <mxPoint x="343" y="855" as="sourcePoint" />
            <mxPoint x="313" y="965" as="targetPoint" />
          </mxGeometry>
        </mxCell>
        <mxCell id="JhqgPvquoJEDo3xzFfw--24" value="Link" style="edgeLabel;resizable=0;html=1;align=center;verticalAlign=middle;" connectable="0" vertex="1" parent="JhqgPvquoJEDo3xzFfw--23">
          <mxGeometry relative="1" as="geometry" />
        </mxCell>
        <mxCell id="JhqgPvquoJEDo3xzFfw--25" value="list of User page" style="rounded=1;whiteSpace=wrap;html=1;" vertex="1" parent="1">
          <mxGeometry x="657.96" y="710" width="180" height="100" as="geometry" />
        </mxCell>
        <mxCell id="JhqgPvquoJEDo3xzFfw--26" value="Account Login Page" style="rounded=1;whiteSpace=wrap;html=1;" vertex="1" parent="1">
          <mxGeometry x="500" y="330" width="180" height="100" as="geometry" />
        </mxCell>
        <mxCell id="JhqgPvquoJEDo3xzFfw--27" value="Account Creation Page" style="rounded=1;whiteSpace=wrap;html=1;" vertex="1" parent="1">
          <mxGeometry x="170" y="330" width="180" height="100" as="geometry" />
        </mxCell>
        <mxCell id="JhqgPvquoJEDo3xzFfw--28" value="" style="endArrow=classic;html=1;rounded=0;exitX=0.5;exitY=1;exitDx=0;exitDy=0;entryX=0.5;entryY=0;entryDx=0;entryDy=0;" edge="1" parent="1" source="JhqgPvquoJEDo3xzFfw--27" target="JhqgPvquoJEDo3xzFfw--34">
          <mxGeometry relative="1" as="geometry">
            <mxPoint x="650" y="300" as="sourcePoint" />
            <mxPoint x="620" y="410" as="targetPoint" />
          </mxGeometry>
        </mxCell>
        <mxCell id="JhqgPvquoJEDo3xzFfw--29" value="Link" style="edgeLabel;resizable=0;html=1;align=center;verticalAlign=middle;" connectable="0" vertex="1" parent="JhqgPvquoJEDo3xzFfw--28">
          <mxGeometry relative="1" as="geometry" />
        </mxCell>
        <mxCell id="JhqgPvquoJEDo3xzFfw--30" value="" style="endArrow=classic;html=1;rounded=0;exitX=0.5;exitY=1;exitDx=0;exitDy=0;entryX=0.5;entryY=0;entryDx=0;entryDy=0;" edge="1" parent="1" source="JhqgPvquoJEDo3xzFfw--1" target="JhqgPvquoJEDo3xzFfw--27">
          <mxGeometry relative="1" as="geometry">
            <mxPoint x="570" y="300" as="sourcePoint" />
            <mxPoint x="540" y="410" as="targetPoint" />
          </mxGeometry>
        </mxCell>
        <mxCell id="JhqgPvquoJEDo3xzFfw--31" value="Link" style="edgeLabel;resizable=0;html=1;align=center;verticalAlign=middle;" connectable="0" vertex="1" parent="JhqgPvquoJEDo3xzFfw--30">
          <mxGeometry relative="1" as="geometry" />
        </mxCell>
        <mxCell id="JhqgPvquoJEDo3xzFfw--32" value="" style="endArrow=classic;html=1;rounded=0;exitX=0.5;exitY=1;exitDx=0;exitDy=0;entryX=0.5;entryY=0;entryDx=0;entryDy=0;" edge="1" parent="1" source="JhqgPvquoJEDo3xzFfw--1" target="JhqgPvquoJEDo3xzFfw--26">
          <mxGeometry relative="1" as="geometry">
            <mxPoint x="500" y="340" as="sourcePoint" />
            <mxPoint x="470" y="450" as="targetPoint" />
          </mxGeometry>
        </mxCell>
        <mxCell id="JhqgPvquoJEDo3xzFfw--33" value="Link" style="edgeLabel;resizable=0;html=1;align=center;verticalAlign=middle;" connectable="0" vertex="1" parent="JhqgPvquoJEDo3xzFfw--32">
          <mxGeometry relative="1" as="geometry" />
        </mxCell>
        <mxCell id="JhqgPvquoJEDo3xzFfw--34" value="Shinano Document." style="rounded=1;whiteSpace=wrap;html=1;" vertex="1" parent="1">
          <mxGeometry x="330" y="490.01" width="180" height="100" as="geometry" />
        </mxCell>
        <mxCell id="JhqgPvquoJEDo3xzFfw--35" value="" style="endArrow=classic;html=1;rounded=0;exitX=1;exitY=0.5;exitDx=0;exitDy=0;entryX=0;entryY=0.5;entryDx=0;entryDy=0;" edge="1" parent="1" source="JhqgPvquoJEDo3xzFfw--41" target="JhqgPvquoJEDo3xzFfw--39">
          <mxGeometry relative="1" as="geometry">
            <mxPoint x="-37" y="840" as="sourcePoint" />
            <mxPoint x="-67" y="950" as="targetPoint" />
          </mxGeometry>
        </mxCell>
        <mxCell id="JhqgPvquoJEDo3xzFfw--36" value="Link" style="edgeLabel;resizable=0;html=1;align=center;verticalAlign=middle;" connectable="0" vertex="1" parent="JhqgPvquoJEDo3xzFfw--35">
          <mxGeometry relative="1" as="geometry" />
        </mxCell>
        <mxCell id="JhqgPvquoJEDo3xzFfw--37" value="" style="endArrow=classic;html=1;rounded=0;exitX=0.5;exitY=1;exitDx=0;exitDy=0;entryX=0.5;entryY=0;entryDx=0;entryDy=0;" edge="1" parent="1" source="JhqgPvquoJEDo3xzFfw--1" target="JhqgPvquoJEDo3xzFfw--34">
          <mxGeometry relative="1" as="geometry">
            <mxPoint x="620" y="380" as="sourcePoint" />
            <mxPoint x="590" y="490" as="targetPoint" />
          </mxGeometry>
        </mxCell>
        <mxCell id="JhqgPvquoJEDo3xzFfw--38" value="Link" style="edgeLabel;resizable=0;html=1;align=center;verticalAlign=middle;" connectable="0" vertex="1" parent="JhqgPvquoJEDo3xzFfw--37">
          <mxGeometry relative="1" as="geometry" />
        </mxCell>
        <mxCell id="JhqgPvquoJEDo3xzFfw--39" value="Edit Job_entry page" style="rounded=1;whiteSpace=wrap;html=1;" vertex="1" parent="1">
          <mxGeometry x="233" y="710" width="180" height="100" as="geometry" />
        </mxCell>
        <mxCell id="JhqgPvquoJEDo3xzFfw--40" value="Edit User page" style="rounded=1;whiteSpace=wrap;html=1;" vertex="1" parent="1">
          <mxGeometry x="233" y="910" width="180" height="100" as="geometry" />
        </mxCell>
        <mxCell id="JhqgPvquoJEDo3xzFfw--41" value="User menu page" style="rounded=1;whiteSpace=wrap;html=1;" vertex="1" parent="1">
          <mxGeometry x="13" y="710" width="180" height="100" as="geometry" />
        </mxCell>
        <mxCell id="RWKKZCi5m3WSHWBrvXmR-1" value="&lt;b style=&quot;font-size: 32px;&quot;&gt;Shinano Prototype.&lt;br&gt;Pages Link and Statements.&lt;/b&gt;" style="text;html=1;strokeColor=none;fillColor=none;align=left;verticalAlign=middle;whiteSpace=wrap;rounded=0;" vertex="1" parent="1">
          <mxGeometry width="617" height="80" as="geometry" />
        </mxCell>
        <mxCell id="RuBTECDIYpvl6vKo8psU-1" value="not Logged in" style="text;html=1;strokeColor=none;fillColor=none;align=center;verticalAlign=middle;whiteSpace=wrap;rounded=0;" vertex="1" parent="1">
          <mxGeometry x="33" y="140" width="100" height="30" as="geometry" />
        </mxCell>
        <mxCell id="RuBTECDIYpvl6vKo8psU-2" value="Logged in" style="text;html=1;strokeColor=none;fillColor=none;align=center;verticalAlign=middle;whiteSpace=wrap;rounded=0;" vertex="1" parent="1">
          <mxGeometry x="53" y="640" width="60" height="30" as="geometry" />
        </mxCell>
      </root>
    </mxGraphModel>
  </diagram>
</mxfile>
